<svg id="Layer_1" enable-background="new 0 0 511.999 511.999" height="512" viewBox="0 0 511.999 511.999" width="512" xmlns="http://www.w3.org/2000/svg"><g><g><g><path d="m256 511.999c-63.218 0-120.314-76.858-141.928-109.903-41.989-64.195-68.072-137.802-68.072-192.096 0-115.794 94.205-210 210-210s210 94.206 210 210c0 54.295-26.083 127.902-68.072 192.096-21.614 33.045-78.711 109.903-141.928 109.903z" fill="#ff5959"/></g></g><path d="m256.069 0v511.999c63.19-.056 120.253-76.87 141.859-109.903 41.988-64.195 68.072-137.802 68.072-192.096 0-115.771-94.169-209.962-209.931-210z" fill="#e63950"/><g><path d="m256 361.435c-83.502 0-151.436-67.934-151.436-151.436s67.934-151.435 151.436-151.435 151.436 67.934 151.436 151.436-67.934 151.435-151.436 151.435z" fill="#fff4f4"/></g><g><path clip-rule="evenodd" d="m256 181.23c8.325 0 15.115-6.79 15.115-15.115s-6.79-15.115-15.115-15.115-15.115 6.79-15.115 15.115 6.79 15.115 15.115 15.115z" fill="#ff5959" fill-rule="evenodd"/></g><path d="m256.069 58.564v302.871c83.47-.037 151.367-67.956 151.367-151.435s-67.897-151.398-151.367-151.436z" fill="#f6efea"/><g><path d="m215.989 230.003c-2.17 0-4.373-.473-6.461-1.471l-5.904-2.824c-8.166-3.906-16.021-4.566-24.722-2.078-7.969 2.276-16.268-2.335-18.545-10.3s2.334-16.268 10.3-18.545c15.717-4.493 31.164-3.194 45.911 3.859l5.904 2.823c7.474 3.574 10.635 12.53 7.061 20.004-2.577 5.386-7.948 8.532-13.544 8.532z" fill="#bee75e"/></g><path d="m258.59 295.951c-8.284 0-15-6.716-15-15 0-41.515 20.514-59.72 36.997-74.349 15.493-13.75 26.688-23.685 24.121-52.45-.736-8.251 5.356-15.538 13.607-16.273 8.247-.739 15.537 5.356 16.273 13.607 3.911 43.83-17.159 62.529-34.089 77.554-15.035 13.343-26.91 23.883-26.91 51.911.001 8.284-6.715 15-14.999 15z" fill="#7dd5f4"/><path clip-rule="evenodd" d="m256.069 151v30.229c8.293-.037 15.046-6.813 15.046-15.115s-6.753-15.076-15.046-15.114z" fill="#e63950" fill-rule="evenodd"/><path d="m334.589 151.486c-.737-8.251-8.026-14.346-16.273-13.607-8.251.736-14.344 8.022-13.607 16.273 2.566 28.765-8.628 38.7-24.121 52.45-8.18 7.26-17.353 15.4-24.518 26.833v62.305c.82.139 1.662.211 2.521.211 8.284 0 15-6.716 15-15 0-28.028 11.875-38.568 26.91-51.911 16.929-15.025 37.999-33.725 34.088-77.554z" fill="#27b2eb"/></g></svg>