<svg id="Layer_1" enable-background="new 0 0 512.003 512.003" height="512" viewBox="0 0 512.003 512.003" width="512" xmlns="http://www.w3.org/2000/svg"><g><path d="m80.001 256.001c0-120.176 89.826-219.372 206-234.11-9.824-1.246-19.837-1.89-30-1.89-130.339 0-236 105.661-236 236s105.661 236 236 236c10.163 0 20.176-.643 30-1.89-116.174-14.738-206-113.934-206-234.11z" fill="#cee1f2"/><path d="m256.001 512.001c-68.38 0-132.667-26.629-181.02-74.98-160.526-160.875-46.195-436.795 181.022-437.019 227.225.214 341.539 276.205 181.018 437.018-48.353 48.352-112.64 74.981-181.02 74.981zm0-472c-119.103 0-216 96.897-216 216 11.865 286.553 420.178 286.47 432-.002 0-119.101-96.897-215.998-216-215.998z" fill="#0023c4"/><path d="m372.001 392.001c-5.118 0-10.237-1.952-14.143-5.857l-232-232.001c-7.81-7.811-7.81-20.474 0-28.284 7.811-7.811 20.475-7.811 28.285 0l232 232c7.81 7.811 7.81 20.475 0 28.285-3.905 3.905-9.024 5.857-14.142 5.857z" fill="#ff5cf4"/></g></svg>